<svg width="1089" height="32" viewBox="0 0 1089 32" fill="none" xmlns="http://www.w3.org/2000/svg">
<path d="M1032.73 29.3888C1034.2 29.0905 1035.17 27.7727 1035.47 27.1511H962.904C963.209 27.7727 964.182 29.0905 965.643 29.3888C965.795 30.2591 966.464 31.9995 967.925 31.9995H1030.45C1031.91 31.9995 1032.58 30.2591 1032.73 29.3888Z" fill="url(#paint0_linear_567_128)"/>
<path d="M1032.67 29.6992C1032.43 30.6159 1031.75 31.9987 1030.45 31.999H967.925C966.562 31.999 965.889 30.485 965.681 29.5752H1032.67V29.6992Z" fill="black" fill-opacity="0.3"/>
<path d="M122.845 29.3888C124.306 29.0905 125.279 27.7727 125.583 27.1511H53.0146C53.3189 27.7727 54.2926 29.0905 55.7531 29.3888C55.9052 30.2591 56.5746 31.9995 58.0351 31.9995H120.563C122.024 31.9995 122.693 30.2591 122.845 29.3888Z" fill="url(#paint1_linear_567_128)"/>
<path d="M122.78 29.6914C122.544 30.608 121.871 31.9997 120.565 32H58.0371C56.6747 32 56.0008 30.485 55.793 29.5752H122.78V29.6914Z" fill="black" fill-opacity="0.3"/>
<mask id="mask0_567_128" style="mask-type:alpha" maskUnits="userSpaceOnUse" x="0" y="0" width="1089" height="28">
<path d="M1089 2.90451V0H0V2.90451C0 11.3915 0 15.635 2.34264 18.8767C4.40329 21.7281 7.69135 24.0463 11.7356 25.4992C16.3333 27.1509 22.352 27.1509 34.3895 27.1509H1054.61C1066.65 27.1509 1072.67 27.1509 1077.26 25.4992C1081.31 24.0463 1084.6 21.7281 1086.66 18.8767C1089 15.635 1089 11.3915 1089 2.90451Z" fill="white"/>
</mask>
<g mask="url(#mask0_567_128)">
<path d="M1089 2.90451V0H0V2.90451C0 11.3915 0 15.635 2.34264 18.8767C4.40329 21.7281 7.69135 24.0463 11.7356 25.4992C16.3333 27.1509 22.352 27.1509 34.3895 27.1509H1054.61C1066.65 27.1509 1072.67 27.1509 1077.26 25.4992C1081.31 24.0463 1084.6 21.7281 1086.66 18.8767C1089 15.635 1089 11.3915 1089 2.90451Z" fill="url(#paint2_linear_567_128)"/>
<rect x="966.725" y="0.000244141" width="122.274" height="27.1509" fill="url(#paint3_linear_567_128)"/>
<rect width="123.229" height="27.1509" transform="matrix(-1 0 0 1 123.227 0.000244141)" fill="url(#paint4_linear_567_128)"/>
<g filter="url(#filter0_f_567_128)">
<path d="M2.38574 -4.84814H16.2371V9.55902C16.2371 13.384 13.1363 16.4847 9.3114 16.4847V16.4847C5.48646 16.4847 2.38574 13.384 2.38574 9.55902V-4.84814Z" fill="url(#paint5_linear_567_128)"/>
</g>
<g filter="url(#filter1_f_567_128)">
<path d="M1086.61 -4.84814H1072.76V9.55902C1072.76 13.384 1075.86 16.4847 1079.69 16.4847V16.4847C1083.51 16.4847 1086.61 13.384 1086.61 9.55902V-4.84814Z" fill="url(#paint6_linear_567_128)"/>
</g>
</g>
<path d="M446.584 0.000244141H642.413C642.413 7.49775 636.335 13.5757 628.838 13.5757H460.159C452.662 13.5757 446.584 7.49775 446.584 0.000244141Z" fill="url(#paint7_linear_567_128)"/>
<defs>
<filter id="filter0_f_567_128" x="-0.481149" y="-7.71504" width="19.5853" height="27.0665" filterUnits="userSpaceOnUse" color-interpolation-filters="sRGB">
<feFlood flood-opacity="0" result="BackgroundImageFix"/>
<feBlend mode="normal" in="SourceGraphic" in2="BackgroundImageFix" result="shape"/>
<feGaussianBlur stdDeviation="1.43345" result="effect1_foregroundBlur_567_128"/>
</filter>
<filter id="filter1_f_567_128" x="1069.89" y="-7.71504" width="19.5853" height="27.0665" filterUnits="userSpaceOnUse" color-interpolation-filters="sRGB">
<feFlood flood-opacity="0" result="BackgroundImageFix"/>
<feBlend mode="normal" in="SourceGraphic" in2="BackgroundImageFix" result="shape"/>
<feGaussianBlur stdDeviation="1.43345" result="effect1_foregroundBlur_567_128"/>
</filter>
<linearGradient id="paint0_linear_567_128" x1="962.904" y1="29.5753" x2="1035.47" y2="29.5753" gradientUnits="userSpaceOnUse">
<stop stop-color="#747474"/>
<stop offset="0.173014" stop-color="#474747"/>
<stop offset="0.31824" stop-color="#6F6F6F"/>
<stop offset="0.691458" stop-color="#727272"/>
<stop offset="0.825754" stop-color="#474747"/>
<stop offset="1" stop-color="#757575"/>
</linearGradient>
<linearGradient id="paint1_linear_567_128" x1="53.0146" y1="29.5753" x2="125.583" y2="29.5753" gradientUnits="userSpaceOnUse">
<stop stop-color="#747474"/>
<stop offset="0.173014" stop-color="#474747"/>
<stop offset="0.31824" stop-color="#6F6F6F"/>
<stop offset="0.691458" stop-color="#727272"/>
<stop offset="0.825754" stop-color="#474747"/>
<stop offset="1" stop-color="#757575"/>
</linearGradient>
<linearGradient id="paint2_linear_567_128" x1="544.5" y1="0" x2="544.5" y2="27.1509" gradientUnits="userSpaceOnUse">
<stop stop-color="#707070"/>
<stop offset="0.192522" stop-color="#727272"/>
<stop offset="0.376094" stop-color="#656565"/>
<stop offset="0.598958" stop-color="#474747"/>
<stop offset="0.713542" stop-color="#2E2E2E"/>
<stop offset="0.852125" stop-color="#262626"/>
<stop offset="0.931356" stop-color="#292929"/>
</linearGradient>
<linearGradient id="paint3_linear_567_128" x1="1089" y1="13.9871" x2="966.725" y2="13.9871" gradientUnits="userSpaceOnUse">
<stop stop-color="#383838" stop-opacity="0"/>
<stop offset="0.259918" stop-color="#3C3C3C"/>
<stop offset="1" stop-color="#363636" stop-opacity="0"/>
</linearGradient>
<linearGradient id="paint4_linear_567_128" x1="123.229" y1="13.9868" x2="4.21786e-08" y2="13.9868" gradientUnits="userSpaceOnUse">
<stop stop-color="#383838" stop-opacity="0"/>
<stop offset="0.259918" stop-color="#3C3C3C"/>
<stop offset="1" stop-color="#363636" stop-opacity="0"/>
</linearGradient>
<linearGradient id="paint5_linear_567_128" x1="2.38574" y1="2.46597" x2="16.2371" y2="2.46597" gradientUnits="userSpaceOnUse">
<stop offset="0.0875682" stop-color="white" stop-opacity="0.17"/>
<stop offset="0.272185" stop-color="white" stop-opacity="0.65"/>
<stop offset="0.489769" stop-color="white" stop-opacity="0.65"/>
<stop offset="0.677083" stop-color="white" stop-opacity="0.19"/>
<stop offset="1" stop-color="white" stop-opacity="0"/>
</linearGradient>
<linearGradient id="paint6_linear_567_128" x1="1086.61" y1="2.46597" x2="1072.76" y2="2.46597" gradientUnits="userSpaceOnUse">
<stop offset="0.0875682" stop-color="white" stop-opacity="0.17"/>
<stop offset="0.272185" stop-color="white" stop-opacity="0.65"/>
<stop offset="0.489769" stop-color="white" stop-opacity="0.65"/>
<stop offset="0.677083" stop-color="white" stop-opacity="0.19"/>
<stop offset="1" stop-color="white" stop-opacity="0"/>
</linearGradient>
<linearGradient id="paint7_linear_567_128" x1="447.047" y1="6.58227" x2="642.413" y2="6.58225" gradientUnits="userSpaceOnUse">
<stop stop-color="#292929"/>
<stop offset="0.015659" stop-color="#4F4F4F"/>
<stop offset="0.035819" stop-color="#7D7D7D"/>
<stop offset="0.0504351" stop-color="#9D9D9D"/>
<stop offset="0.479167" stop-color="#A3A3A3"/>
<stop offset="0.941214" stop-color="#A3A3A3"/>
<stop offset="0.970403" stop-color="#818181"/>
<stop offset="0.980129" stop-color="#5B5B5B"/>
<stop offset="1" stop-color="#262626"/>
</linearGradient>
</defs>
</svg>
