<svg width="430" height="54" viewBox="0 0 430 54" fill="none" xmlns="http://www.w3.org/2000/svg">
<g clip-path="url(#clip0_714_135)">
<path opacity="0.2" d="M324.511 35.4102H326.512C327.035 35.4102 327.384 35.0449 327.384 34.5054V32.7783C327.384 32.2388 327.035 31.8818 326.512 31.8818H324.511C323.989 31.8818 323.64 32.2388 323.64 32.7783V34.5054C323.64 35.0449 323.989 35.4102 324.511 35.4102Z" fill="black"/>
<path d="M324.515 35.4102H326.532C327.047 35.4102 327.395 35.0449 327.395 34.5054V21.9048C327.395 21.3652 327.047 21 326.532 21H324.515C324 21 323.644 21.3652 323.644 21.9048V34.5054C323.644 35.0449 324 35.4102 324.515 35.4102Z" fill="black"/>
<path opacity="0.2" d="M318.302 35.4102H320.302C320.825 35.4102 321.174 35.0449 321.174 34.5054V32.7783C321.174 32.2388 320.825 31.8818 320.302 31.8818H318.302C317.779 31.8818 317.43 32.2388 317.43 32.7783V34.5054C317.43 35.0449 317.779 35.4102 318.302 35.4102Z" fill="black"/>
<path d="M318.306 35.4102H320.307C320.821 35.4102 321.178 35.0449 321.178 34.5054V25.1836C321.178 24.644 320.821 24.2788 320.307 24.2788H318.306C317.783 24.2788 317.435 24.644 317.435 25.1836V34.5054C317.435 35.0449 317.783 35.4102 318.306 35.4102Z" fill="black"/>
<path opacity="0.2" d="M312.092 35.4102H314.092C314.615 35.4102 314.964 35.0449 314.964 34.5054V32.7783C314.964 32.2388 314.615 31.8818 314.092 31.8818H312.092C311.569 31.8818 311.22 32.2388 311.22 32.7783V34.5054C311.22 35.0449 311.569 35.4102 312.092 35.4102Z" fill="black"/>
<path d="M312.089 35.4102H314.089C314.612 35.4102 314.961 35.0449 314.961 34.5054V28.1885C314.961 27.6489 314.612 27.2837 314.089 27.2837H312.089C311.566 27.2837 311.217 27.6489 311.217 28.1885V34.5054C311.217 35.0449 311.566 35.4102 312.089 35.4102Z" fill="black"/>
<path opacity="0.2" d="M305.872 35.4102H307.872C308.395 35.4102 308.744 35.0449 308.744 34.5054V32.7783C308.744 32.2388 308.395 31.8818 307.872 31.8818H305.872C305.349 31.8818 305 32.2388 305 32.7783V34.5054C305 35.0449 305.349 35.4102 305.872 35.4102Z" fill="black"/>
<path d="M305.872 35.4102H307.872C308.395 35.4102 308.744 35.0449 308.744 34.5054V30.7783C308.744 30.2388 308.395 29.8818 307.872 29.8818H305.872C305.349 29.8818 305 30.2388 305 30.7783V34.5054C305 35.0449 305.349 35.4102 305.872 35.4102Z" fill="black"/>
</g>
<g clip-path="url(#clip1_714_135)">
<path d="M344.555 35.8042C344.738 35.8042 344.896 35.7212 345.219 35.4058L347.245 33.4634C347.369 33.3389 347.403 33.1562 347.286 33.0068C346.747 32.3096 345.726 31.7036 344.555 31.7036C343.352 31.7036 342.331 32.3345 341.791 33.0566C341.708 33.1895 341.742 33.3389 341.874 33.4634L343.891 35.4058C344.215 35.7129 344.373 35.8042 344.555 35.8042ZM339.7 31.2886C339.882 31.4629 340.106 31.438 340.272 31.2554C341.268 30.1514 342.895 29.3462 344.555 29.3545C346.232 29.3462 347.859 30.1763 348.872 31.2803C349.021 31.4546 349.229 31.4463 349.411 31.2803L350.698 30.002C350.831 29.8691 350.848 29.6865 350.723 29.5371C349.47 28.0015 347.145 26.8477 344.555 26.8477C341.966 26.8477 339.641 28.0015 338.388 29.5371C338.263 29.6865 338.272 29.8525 338.413 30.002L339.7 31.2886ZM336.255 27.8189C336.421 27.9766 336.653 27.9766 336.811 27.8106C338.853 25.644 341.542 24.4985 344.555 24.4985C347.585 24.4985 350.291 25.6523 352.317 27.8189C352.466 27.9683 352.69 27.96 352.856 27.8022L354.002 26.6567C354.151 26.5073 354.143 26.3247 354.027 26.1836C352.076 23.7764 348.407 22.0083 344.555 22.0083C340.712 22.0083 337.027 23.7764 335.084 26.1836C334.968 26.3247 334.968 26.5073 335.109 26.6567L336.255 27.8189Z" fill="black"/>
</g>
<g clip-path="url(#clip2_714_135)">
<path opacity="0.4" d="M367.522 35.9548H384.203C386.149 35.9548 387.54 35.7363 388.532 34.7438C389.528 33.7513 389.733 32.3858 389.733 30.4323V27.5391C389.733 25.5856 389.528 24.2134 388.532 23.2242C387.537 22.2318 386.149 22.0166 384.203 22.0166H367.461C365.59 22.0166 364.196 22.2351 363.204 23.2309C362.208 24.2234 362 25.5997 362 27.4702V30.4323C362 32.3858 362.204 33.7546 363.197 34.7438C364.196 35.7363 365.58 35.9548 367.522 35.9548ZM367.239 34.6249C365.973 34.6249 364.833 34.4245 364.171 33.77C363.519 33.1081 363.33 31.9852 363.33 30.7156V27.3138C363.33 25.9927 363.519 24.8566 364.167 24.1947C364.829 23.5294 365.987 23.3432 367.305 23.3432H384.493C385.76 23.3432 386.9 23.5468 387.551 24.198C388.213 24.86 388.403 25.9753 388.403 27.2449V30.7156C388.403 31.9852 388.21 33.1081 387.551 33.77C386.9 34.4279 385.76 34.6249 384.493 34.6249H367.239ZM390.977 31.601C391.772 31.5506 392.848 30.5256 392.848 28.9819C392.848 27.4424 391.772 26.4174 390.977 26.367V31.601Z" fill="black"/>
<path d="M366.863 33.5219H384.88C385.844 33.5219 386.417 33.3712 386.781 33.0071C387.145 32.6397 387.303 32.0635 387.303 31.0992V26.8687C387.303 25.8977 387.145 25.3282 386.784 24.9608C386.417 24.6001 385.837 24.446 384.88 24.446H366.932C365.903 24.446 365.309 24.5968 364.959 24.9575C364.598 25.3249 364.44 25.9185 364.44 26.9302V31.0992C364.44 32.0735 364.598 32.6397 364.959 33.0071C365.326 33.3678 365.906 33.5219 366.863 33.5219Z" fill="black"/>
</g>
<defs>
<clipPath id="clip0_714_135">
<rect width="22.3955" height="14.4185" fill="white" transform="translate(305 21)"/>
</clipPath>
<clipPath id="clip1_714_135">
<rect width="19.1139" height="13.8042" fill="white" transform="translate(335 22)"/>
</clipPath>
<clipPath id="clip2_714_135">
<rect width="30.8478" height="13.9548" fill="white" transform="translate(362 22)"/>
</clipPath>
</defs>
</svg>
