<svg width="886" height="20" viewBox="0 0 886 20" fill="none" xmlns="http://www.w3.org/2000/svg">
<g clip-path="url(#clip0_603_118)">
<rect width="886" height="20" fill="#D17300" style="mix-blend-mode:darken"/>
<rect width="886" height="20" fill="#D17300"/>
<g filter="url(#filter0_dd_603_118)">
<path d="M34.4087 12.7749C33.8645 12.7749 33.3946 12.6552 32.9988 12.4156C32.603 12.1761 32.2984 11.835 32.0849 11.3924C31.8714 10.9497 31.7646 10.4238 31.7646 9.81452V9.80671C31.7646 9.19744 31.8714 8.67149 32.0849 8.22886C32.2984 7.78623 32.6017 7.44644 32.9949 7.2095C33.3907 6.96996 33.8619 6.85019 34.4087 6.85019C34.854 6.85019 35.2536 6.93742 35.6077 7.11186C35.9644 7.28631 36.2522 7.52716 36.4709 7.8344C36.6896 8.14163 36.8172 8.49314 36.8536 8.8889V8.93967H35.7093L35.7054 8.91233C35.6663 8.70143 35.5869 8.51657 35.4671 8.35774C35.3474 8.19631 35.1963 8.07133 35.0141 7.98281C34.8344 7.89428 34.6326 7.85002 34.4087 7.85002C34.1145 7.85002 33.8593 7.92943 33.6432 8.08826C33.4271 8.24448 33.2605 8.4697 33.1433 8.76392C33.0288 9.05554 32.9715 9.40313 32.9715 9.80671V9.81452C32.9715 10.2155 33.0288 10.5631 33.1433 10.8573C33.2605 11.1515 33.4271 11.3781 33.6432 11.5369C33.8593 11.6957 34.1158 11.7751 34.4126 11.7751C34.6391 11.7751 34.8409 11.7348 35.018 11.654C35.1976 11.5707 35.3461 11.4549 35.4632 11.3064C35.583 11.1554 35.6624 10.9797 35.7015 10.7792L35.7093 10.744H36.8575V10.7909C36.8159 11.1841 36.687 11.5291 36.4709 11.8259C36.2548 12.1227 35.9709 12.3557 35.6194 12.525C35.2679 12.6916 34.8644 12.7749 34.4087 12.7749Z" fill="white"/>
<path d="M37.83 12.6304V8.3304H38.9704V8.99826H39.0407C39.111 8.76392 39.2399 8.58296 39.4274 8.45538C39.6148 8.3252 39.8479 8.2601 40.1265 8.2601C40.2046 8.2601 40.2801 8.26531 40.353 8.27572C40.4285 8.28614 40.4949 8.29916 40.5522 8.31478V9.3107C40.4663 9.28987 40.379 9.27425 40.2905 9.26383C40.2046 9.25082 40.1174 9.24431 40.0288 9.24431C39.8127 9.24431 39.6253 9.28466 39.4664 9.36538C39.3076 9.44349 39.1852 9.55545 39.0993 9.70126C39.0134 9.84707 38.9704 10.0215 38.9704 10.2246V12.6304H37.83Z" fill="white"/>
<path d="M43.1103 12.7203C42.6755 12.7203 42.3006 12.6304 41.9855 12.4508C41.6731 12.2685 41.4322 12.0108 41.263 11.6775C41.0938 11.3442 41.0091 10.9471 41.0091 10.4863V10.4824C41.0091 10.0267 41.0925 9.63096 41.2591 9.29508C41.4283 8.9592 41.6666 8.69883 41.9738 8.51396C42.2837 8.3291 42.6469 8.23667 43.0635 8.23667C43.4827 8.23667 43.8446 8.3265 44.1492 8.50615C44.4539 8.68581 44.6882 8.93707 44.8522 9.25993C45.0163 9.58279 45.0983 9.96163 45.0983 10.3965V10.7519H41.5794V10.0371H44.5515L44.0164 10.7128V10.2558C44.0164 9.99808 43.9761 9.78328 43.8954 9.61143C43.8172 9.43959 43.7079 9.3107 43.5673 9.22478C43.4293 9.13625 43.2679 9.09199 43.083 9.09199C42.9007 9.09199 42.738 9.13755 42.5948 9.22868C42.4542 9.31721 42.3422 9.4487 42.2589 9.62315C42.1782 9.79499 42.1378 10.0059 42.1378 10.2558V10.7167C42.1378 10.9589 42.1782 11.1658 42.2589 11.3377C42.3396 11.5095 42.4542 11.641 42.6026 11.7322C42.751 11.8233 42.9281 11.8689 43.1338 11.8689C43.3004 11.8689 43.4423 11.8441 43.5595 11.7946C43.6766 11.7452 43.7704 11.6879 43.8407 11.6228C43.9136 11.5551 43.9631 11.4939 43.9891 11.4392L44.0008 11.4158H45.0631L45.0553 11.4549C45.0215 11.5903 44.9603 11.7322 44.8717 11.8806C44.7832 12.0264 44.6608 12.1631 44.5046 12.2907C44.351 12.4182 44.1583 12.5224 43.9266 12.6031C43.6975 12.6812 43.4254 12.7203 43.1103 12.7203Z" fill="white"/>
<path d="M47.2034 12.6968C46.9326 12.6968 46.6904 12.6448 46.4769 12.5406C46.266 12.4339 46.1007 12.2841 45.9809 12.0915C45.8612 11.8962 45.8013 11.6684 45.8013 11.408V11.4002C45.8013 11.1424 45.8651 10.9211 45.9926 10.7362C46.1228 10.5514 46.3116 10.4069 46.559 10.3027C46.8089 10.196 47.1122 10.1322 47.469 10.1113L49.0702 10.0137V10.7089L47.6408 10.8026C47.396 10.8156 47.2138 10.8677 47.094 10.9589C46.9742 11.05 46.9144 11.1737 46.9144 11.3299V11.3377C46.9144 11.5017 46.9769 11.6306 47.1018 11.7243C47.2268 11.8181 47.3882 11.8649 47.5861 11.8649C47.7632 11.8649 47.9207 11.8298 48.0587 11.7595C48.1967 11.6892 48.306 11.5942 48.3868 11.4744C48.4675 11.352 48.5078 11.2153 48.5078 11.0643V9.69345C48.5078 9.50598 48.4453 9.36278 48.3204 9.26383C48.198 9.16229 48.0196 9.11152 47.7853 9.11152C47.5796 9.11152 47.4117 9.14667 47.2815 9.21697C47.1539 9.28466 47.068 9.3823 47.0237 9.50989L47.0159 9.52551H45.9614L45.9653 9.49036C45.9966 9.2378 46.0916 9.01778 46.2504 8.83032C46.4118 8.64285 46.628 8.49704 46.8987 8.39289C47.1721 8.28874 47.4885 8.23667 47.8478 8.23667C48.2279 8.23667 48.5508 8.29525 48.8164 8.41242C49.082 8.52698 49.2837 8.69362 49.4217 8.91233C49.5623 9.12844 49.6326 9.38881 49.6326 9.69345V12.6304H48.5078V12.0602H48.4375C48.3646 12.193 48.267 12.3076 48.1446 12.4039C48.0248 12.4976 47.8842 12.5706 47.7228 12.6226C47.564 12.6721 47.3908 12.6968 47.2034 12.6968Z" fill="white"/>
<path d="M52.5345 12.6461C52.0137 12.6461 51.6388 12.5549 51.4097 12.3727C51.1805 12.1878 51.066 11.8871 51.066 11.4705V9.18963H50.402V8.3304H51.066V7.30324H52.2181V8.3304H53.1047V9.18963H52.2181V11.2088C52.2181 11.4015 52.2611 11.5434 52.347 11.6345C52.4355 11.723 52.5761 11.7673 52.7688 11.7673C52.8417 11.7673 52.9016 11.766 52.9485 11.7634C52.9979 11.7582 53.05 11.753 53.1047 11.7478V12.5953C53.0344 12.6083 52.9498 12.62 52.8508 12.6304C52.7519 12.6409 52.6464 12.6461 52.5345 12.6461Z" fill="white"/>
<path d="M55.9128 12.7203C55.478 12.7203 55.103 12.6304 54.788 12.4508C54.4755 12.2685 54.2347 12.0108 54.0655 11.6775C53.8962 11.3442 53.8116 10.9471 53.8116 10.4863V10.4824C53.8116 10.0267 53.8949 9.63096 54.0616 9.29508C54.2308 8.9592 54.469 8.69883 54.7763 8.51396C55.0861 8.3291 55.4493 8.23667 55.8659 8.23667C56.2851 8.23667 56.647 8.3265 56.9517 8.50615C57.2563 8.68581 57.4907 8.93707 57.6547 9.25993C57.8187 9.58279 57.9007 9.96163 57.9007 10.3965V10.7519H54.3818V10.0371H57.354L56.8189 10.7128V10.2558C56.8189 9.99808 56.7785 9.78328 56.6978 9.61143C56.6197 9.43959 56.5104 9.3107 56.3698 9.22478C56.2318 9.13625 56.0703 9.09199 55.8855 9.09199C55.7032 9.09199 55.5405 9.13755 55.3973 9.22868C55.2567 9.31721 55.1447 9.4487 55.0614 9.62315C54.9807 9.79499 54.9403 10.0059 54.9403 10.2558V10.7167C54.9403 10.9589 54.9807 11.1658 55.0614 11.3377C55.1421 11.5095 55.2567 11.641 55.4051 11.7322C55.5535 11.8233 55.7305 11.8689 55.9362 11.8689C56.1029 11.8689 56.2448 11.8441 56.3619 11.7946C56.4791 11.7452 56.5728 11.6879 56.6431 11.6228C56.716 11.5551 56.7655 11.4939 56.7916 11.4392L56.8033 11.4158H57.8656L57.8578 11.4549C57.8239 11.5903 57.7627 11.7322 57.6742 11.8806C57.5857 12.0264 57.4633 12.1631 57.3071 12.2907C57.1535 12.4182 56.9608 12.5224 56.7291 12.6031C56.4999 12.6812 56.2278 12.7203 55.9128 12.7203Z" fill="white"/>
<path d="M59.5723 12.6304L58.4241 8.3304H59.5762L60.2167 11.4431H60.287L61.0408 8.3304H62.1266L62.8842 11.4431H62.9545L63.5951 8.3304H64.7238L63.5794 12.6304H62.3687L61.5993 9.63096H61.529L60.7674 12.6304H59.5723Z" fill="white"/>
<path d="M67.2468 12.7203C66.8119 12.7203 66.437 12.6304 66.122 12.4508C65.8095 12.2685 65.5687 12.0108 65.3994 11.6775C65.2302 11.3442 65.1456 10.9471 65.1456 10.4863V10.4824C65.1456 10.0267 65.2289 9.63096 65.3955 9.29508C65.5648 8.9592 65.803 8.69883 66.1102 8.51396C66.4201 8.3291 66.7833 8.23667 67.1999 8.23667C67.6191 8.23667 67.981 8.3265 68.2856 8.50615C68.5903 8.68581 68.8246 8.93707 68.9887 9.25993C69.1527 9.58279 69.2347 9.96163 69.2347 10.3965V10.7519H65.7158V10.0371H68.6879L68.1529 10.7128V10.2558C68.1529 9.99808 68.1125 9.78328 68.0318 9.61143C67.9537 9.43959 67.8443 9.3107 67.7037 9.22478C67.5657 9.13625 67.4043 9.09199 67.2194 9.09199C67.0372 9.09199 66.8744 9.13755 66.7312 9.22868C66.5906 9.31721 66.4787 9.4487 66.3954 9.62315C66.3146 9.79499 66.2743 10.0059 66.2743 10.2558V10.7167C66.2743 10.9589 66.3146 11.1658 66.3954 11.3377C66.4761 11.5095 66.5906 11.641 66.739 11.7322C66.8875 11.8233 67.0645 11.8689 67.2702 11.8689C67.4368 11.8689 67.5787 11.8441 67.6959 11.7946C67.8131 11.7452 67.9068 11.6879 67.9771 11.6228C68.05 11.5551 68.0995 11.4939 68.1255 11.4392L68.1372 11.4158H69.1996L69.1917 11.4549C69.1579 11.5903 69.0967 11.7322 69.0082 11.8806C68.9197 12.0264 68.7973 12.1631 68.6411 12.2907C68.4874 12.4182 68.2948 12.5224 68.063 12.6031C67.8339 12.6812 67.5618 12.7203 67.2468 12.7203Z" fill="white"/>
<path d="M72.7068 12.6968C72.5037 12.6968 72.3188 12.6682 72.1522 12.6109C71.9855 12.551 71.8397 12.4664 71.7147 12.357C71.5924 12.2477 71.4934 12.1162 71.4179 11.9626H71.3476V12.6304H70.2072V6.68616H71.3476V9.01778H71.4179C71.4908 8.85896 71.5898 8.72356 71.7147 8.6116C71.8423 8.49964 71.9894 8.41372 72.1561 8.35384C72.3253 8.29135 72.5089 8.2601 72.7068 8.2601C73.0687 8.2601 73.3798 8.34863 73.6402 8.52568C73.9006 8.70273 74.101 8.9566 74.2416 9.28727C74.3823 9.61794 74.4525 10.0137 74.4525 10.4746V10.4824C74.4525 10.9406 74.3809 11.3351 74.2377 11.6658C74.0971 11.9964 73.8967 12.2516 73.6363 12.4313C73.3759 12.6083 73.0661 12.6968 72.7068 12.6968ZM72.3162 11.7517C72.5193 11.7517 72.6924 11.7009 72.8356 11.5994C72.9815 11.4978 73.0934 11.352 73.1715 11.1619C73.2522 10.9719 73.2926 10.7453 73.2926 10.4824V10.4746C73.2926 10.2116 73.2522 9.98637 73.1715 9.7989C73.0934 9.60883 72.9815 9.46302 72.8356 9.36147C72.6924 9.25733 72.5193 9.20525 72.3162 9.20525C72.1183 9.20525 71.9452 9.25733 71.7968 9.36147C71.651 9.46302 71.5377 9.60883 71.457 9.7989C71.3763 9.98637 71.3359 10.2129 71.3359 10.4785V10.4863C71.3359 10.7466 71.375 10.9719 71.4531 11.1619C71.5338 11.352 71.647 11.4978 71.7929 11.5994C71.9413 11.7009 72.1157 11.7517 72.3162 11.7517Z" fill="white"/>
</g>
<g filter="url(#filter1_dd_603_118)">
<path d="M85.5273 12.7515V7.11576H89.1205V7.96327H86.535V9.63095H88.8979V10.4511H86.535V12.7515H85.5273Z" fill="white"/>
<path d="M90.1476 12.7515V8.48271H91.1162V12.7515H90.1476ZM90.6358 7.76799C90.477 7.76799 90.3403 7.71201 90.2257 7.60005C90.1112 7.48809 90.0539 7.354 90.0539 7.19778C90.0539 7.03635 90.1112 6.90095 90.2257 6.7916C90.3403 6.67964 90.477 6.62366 90.6358 6.62366C90.7947 6.62366 90.9301 6.67964 91.042 6.7916C91.1566 6.90095 91.2139 7.03635 91.2139 7.19778C91.2139 7.354 91.1566 7.48809 91.042 7.60005C90.9301 7.71201 90.7947 7.76799 90.6358 7.76799Z" fill="white"/>
<path d="M92.3543 12.7515V6.83065H93.3268V12.7515H92.3543Z" fill="white"/>
<path d="M96.377 12.8374C95.9526 12.8374 95.5881 12.7476 95.2835 12.5679C94.9814 12.3883 94.7484 12.1331 94.5844 11.8024C94.4203 11.4718 94.3383 11.0799 94.3383 10.6269V10.623C94.3383 10.1751 94.419 9.78457 94.5805 9.45129C94.7445 9.11802 94.9762 8.86025 95.2757 8.67799C95.5751 8.49312 95.9266 8.40069 96.3302 8.40069C96.7363 8.40069 97.0852 8.49052 97.3768 8.67018C97.6711 8.84723 97.8976 9.09588 98.0564 9.41614C98.2152 9.7364 98.2947 10.1113 98.2947 10.5409V10.8612H94.8265V10.209H97.8182L97.3573 10.8182V10.4316C97.3573 10.1478 97.3144 9.91215 97.2284 9.72468C97.1425 9.53721 97.0227 9.39661 96.8691 9.30288C96.7181 9.20915 96.5424 9.16228 96.3419 9.16228C96.1414 9.16228 95.963 9.21175 95.8068 9.31069C95.6532 9.40703 95.5308 9.55023 95.4397 9.7403C95.3512 9.92777 95.3069 10.1582 95.3069 10.4316V10.8221C95.3069 11.0851 95.3512 11.3103 95.4397 11.4978C95.5282 11.6827 95.6532 11.8259 95.8146 11.9274C95.9787 12.0264 96.1726 12.0758 96.3966 12.0758C96.571 12.0758 96.7207 12.0511 96.8457 12.0016C96.9733 11.9496 97.0761 11.8884 97.1542 11.8181C97.2323 11.7452 97.287 11.6762 97.3183 11.6111L97.33 11.5837H98.2517L98.2439 11.6189C98.21 11.7569 98.1475 11.8975 98.0564 12.0407C97.9679 12.1813 97.8468 12.3128 97.6932 12.4351C97.5422 12.5549 97.3573 12.6526 97.1386 12.7281C96.9199 12.801 96.666 12.8374 96.377 12.8374Z" fill="white"/>
</g>
<g filter="url(#filter2_dd_603_118)">
<path d="M109.37 12.7593V7.12357H113.018V7.97108H110.378V9.49816H112.873V10.2988H110.378V11.9118H113.018V12.7593H109.37Z" fill="white"/>
<path d="M115.705 12.8296C115.351 12.8296 115.042 12.7411 114.779 12.564C114.516 12.3844 114.313 12.1292 114.17 11.7985C114.027 11.4679 113.955 11.0786 113.955 10.6308V10.623C113.955 10.1699 114.026 9.77936 114.166 9.45129C114.309 9.12062 114.511 8.86676 114.772 8.68971C115.034 8.51005 115.346 8.42022 115.705 8.42022C115.9 8.42022 116.082 8.45147 116.252 8.51396C116.421 8.57384 116.569 8.65976 116.697 8.77172C116.827 8.88368 116.929 9.01647 117.002 9.17009H117.072V6.83847H118.04V12.7593H117.072V12.0915H117.002C116.923 12.2451 116.821 12.3779 116.693 12.4898C116.568 12.5992 116.422 12.6838 116.256 12.7437C116.089 12.801 115.905 12.8296 115.705 12.8296ZM116.01 12.0094C116.231 12.0094 116.421 11.9548 116.58 11.8454C116.741 11.7334 116.865 11.5746 116.951 11.3689C117.039 11.1606 117.084 10.9146 117.084 10.6308V10.623C117.084 10.3366 117.039 10.0905 116.951 9.88481C116.865 9.67912 116.741 9.52029 116.58 9.40833C116.421 9.29637 116.231 9.24039 116.01 9.24039C115.791 9.24039 115.601 9.29637 115.439 9.40833C115.281 9.51769 115.158 9.67651 115.072 9.88481C114.986 10.0905 114.943 10.3366 114.943 10.623V10.6308C114.943 10.9172 114.986 11.1632 115.072 11.3689C115.158 11.5746 115.281 11.7334 115.439 11.8454C115.598 11.9548 115.788 12.0094 116.01 12.0094Z" fill="white"/>
<path d="M119.279 12.7593V8.49052H120.247V12.7593H119.279ZM119.767 7.7758C119.608 7.7758 119.471 7.71982 119.357 7.60786C119.242 7.4959 119.185 7.36181 119.185 7.20559C119.185 7.04416 119.242 6.90877 119.357 6.79941C119.471 6.68745 119.608 6.63147 119.767 6.63147C119.926 6.63147 120.061 6.68745 120.173 6.79941C120.287 6.90877 120.345 7.04416 120.345 7.20559C120.345 7.36181 120.287 7.4959 120.173 7.60786C120.061 7.71982 119.926 7.7758 119.767 7.7758Z" fill="white"/>
<path d="M123.126 12.7788C122.636 12.7788 122.283 12.689 122.067 12.5094C121.851 12.3297 121.743 12.0355 121.743 11.6267V9.2443H121.079V8.49052H121.743V7.44383H122.731V8.49052H123.629V9.2443H122.731V11.3963C122.731 11.6072 122.775 11.7621 122.864 11.861C122.955 11.9574 123.101 12.0055 123.301 12.0055C123.372 12.0055 123.429 12.0042 123.473 12.0016C123.52 11.9964 123.572 11.9912 123.629 11.986V12.7359C123.562 12.7489 123.484 12.7593 123.395 12.7671C123.309 12.7749 123.219 12.7788 123.126 12.7788Z" fill="white"/>
</g>
<g filter="url(#filter3_dd_603_118)">
<path d="M136.919 12.8648C136.481 12.8648 136.101 12.7971 135.778 12.6617C135.458 12.5263 135.205 12.3375 135.02 12.0954C134.836 11.8532 134.731 11.5707 134.708 11.2478L134.704 11.1932H135.68L135.684 11.2322C135.7 11.3911 135.763 11.5291 135.872 11.6462C135.984 11.7634 136.132 11.8558 136.317 11.9235C136.502 11.9886 136.713 12.0212 136.95 12.0212C137.176 12.0212 137.377 11.986 137.551 11.9157C137.726 11.8454 137.862 11.7491 137.961 11.6267C138.06 11.5017 138.11 11.3585 138.11 11.1971V11.1932C138.11 10.9901 138.03 10.8247 137.872 10.6972C137.713 10.567 137.451 10.4628 137.087 10.3847L136.481 10.2597C135.903 10.1374 135.483 9.94209 135.22 9.6739C134.959 9.40312 134.829 9.05813 134.829 8.63893V8.63502C134.829 8.29914 134.918 8.00492 135.095 7.75236C135.274 7.4998 135.52 7.30322 135.833 7.16262C136.148 7.01942 136.508 6.94781 136.915 6.94781C137.331 6.94781 137.692 7.01812 137.996 7.15872C138.301 7.29671 138.541 7.48548 138.715 7.72502C138.89 7.96457 138.987 8.23535 139.008 8.53738L139.012 8.58816H138.051L138.043 8.54129C138.02 8.39288 137.959 8.26399 137.86 8.15464C137.763 8.04268 137.635 7.95415 137.473 7.88906C137.312 7.82396 137.123 7.79142 136.907 7.79142C136.701 7.79142 136.518 7.82396 136.356 7.88906C136.195 7.95155 136.067 8.04007 135.973 8.15464C135.882 8.2692 135.837 8.4072 135.837 8.56863V8.57253C135.837 8.77042 135.914 8.93445 136.067 9.06463C136.223 9.19482 136.477 9.29637 136.829 9.36927L137.434 9.49815C137.83 9.58147 138.151 9.69213 138.399 9.83013C138.646 9.96812 138.827 10.14 138.942 10.3457C139.059 10.5488 139.117 10.7935 139.117 11.0799V11.0838C139.117 11.4483 139.028 11.7634 138.848 12.029C138.671 12.2945 138.417 12.5002 138.086 12.646C137.758 12.7919 137.369 12.8648 136.919 12.8648Z" fill="white"/>
<path d="M141.976 12.8101C141.552 12.8101 141.187 12.7202 140.883 12.5406C140.581 12.3609 140.348 12.1058 140.184 11.7751C140.02 11.4444 139.938 11.0526 139.938 10.5995V10.5956C139.938 10.1478 140.018 9.75722 140.18 9.42395C140.344 9.09067 140.575 8.8329 140.875 8.65064C141.174 8.46578 141.526 8.37335 141.929 8.37335C142.336 8.37335 142.684 8.46318 142.976 8.64283C143.27 8.81989 143.497 9.06854 143.656 9.3888C143.814 9.70905 143.894 10.084 143.894 10.5136V10.8339H140.426V10.1816H143.417L142.957 10.7909V10.4042C142.957 10.1204 142.914 9.8848 142.828 9.69734C142.742 9.50987 142.622 9.36927 142.468 9.27554C142.317 9.1818 142.142 9.13494 141.941 9.13494C141.741 9.13494 141.562 9.18441 141.406 9.28335C141.252 9.37968 141.13 9.52289 141.039 9.71296C140.95 9.90043 140.906 10.1309 140.906 10.4042V10.7948C140.906 11.0578 140.95 11.283 141.039 11.4705C141.127 11.6553 141.252 11.7985 141.414 11.9001C141.578 11.999 141.772 12.0485 141.996 12.0485C142.17 12.0485 142.32 12.0238 142.445 11.9743C142.573 11.9222 142.675 11.861 142.753 11.7907C142.832 11.7178 142.886 11.6488 142.918 11.5837L142.929 11.5564H143.851L143.843 11.5915C143.809 11.7295 143.747 11.8701 143.656 12.0133C143.567 12.1539 143.446 12.2854 143.292 12.4078C143.141 12.5276 142.957 12.6252 142.738 12.7007C142.519 12.7736 142.265 12.8101 141.976 12.8101Z" fill="white"/>
<path d="M144.866 12.7242V8.45537H145.839V9.1115H145.905C145.978 8.88237 146.108 8.70402 146.296 8.57644C146.486 8.44886 146.722 8.38507 147.003 8.38507C147.076 8.38507 147.147 8.39027 147.218 8.40069C147.29 8.4085 147.35 8.41891 147.397 8.43193V9.30287C147.319 9.28465 147.24 9.27163 147.159 9.26382C147.081 9.2534 146.999 9.2482 146.913 9.2482C146.697 9.2482 146.508 9.28855 146.347 9.36927C146.185 9.44998 146.06 9.56585 145.972 9.71687C145.883 9.86528 145.839 10.041 145.839 10.2441V12.7242H144.866Z" fill="white"/>
<path d="M149.397 12.7242L147.878 8.45537H148.916L149.901 11.7751H149.971L150.951 8.45537H151.975L150.459 12.7242H149.397Z" fill="white"/>
<path d="M152.806 12.7242V8.45537H153.775V12.7242H152.806ZM153.295 7.74065C153.136 7.74065 152.999 7.68467 152.885 7.57271C152.77 7.46075 152.713 7.32666 152.713 7.17043C152.713 7.009 152.77 6.87361 152.885 6.76425C152.999 6.65229 153.136 6.59631 153.295 6.59631C153.453 6.59631 153.589 6.65229 153.701 6.76425C153.815 6.87361 153.873 7.009 153.873 7.17043C153.873 7.32666 153.815 7.46075 153.701 7.57271C153.589 7.68467 153.453 7.74065 153.295 7.74065Z" fill="white"/>
<path d="M156.806 12.8101C156.376 12.8101 156.009 12.7216 155.704 12.5445C155.4 12.3674 155.167 12.1123 155.005 11.779C154.844 11.4457 154.763 11.0474 154.763 10.5839V10.5761C154.763 10.1152 154.844 9.72077 155.005 9.3927C155.167 9.06463 155.4 8.81338 155.704 8.63893C156.009 8.46187 156.375 8.37335 156.802 8.37335C157.169 8.37335 157.484 8.43714 157.747 8.56472C158.013 8.6897 158.222 8.86415 158.376 9.08807C158.532 9.30938 158.628 9.56845 158.665 9.86528V9.8809H157.747L157.743 9.86918C157.699 9.66089 157.597 9.49034 157.438 9.35755C157.282 9.22476 157.071 9.15837 156.806 9.15837C156.584 9.15837 156.394 9.21435 156.236 9.32631C156.079 9.43827 155.96 9.5997 155.876 9.8106C155.793 10.0215 155.751 10.2767 155.751 10.5761V10.5839C155.751 10.8859 155.793 11.145 155.876 11.3611C155.962 11.5746 156.083 11.7386 156.239 11.8532C156.396 11.9652 156.584 12.0212 156.806 12.0212C157.058 12.0212 157.261 11.9639 157.415 11.8493C157.571 11.7347 157.679 11.5655 157.739 11.3416L157.747 11.326L158.661 11.3221L158.657 11.3572C158.61 11.6462 158.509 11.9001 158.352 12.1188C158.199 12.3375 157.993 12.508 157.735 12.6304C157.477 12.7502 157.168 12.8101 156.806 12.8101Z" fill="white"/>
<path d="M161.418 12.8101C160.994 12.8101 160.629 12.7202 160.325 12.5406C160.023 12.3609 159.79 12.1058 159.626 11.7751C159.462 11.4444 159.38 11.0526 159.38 10.5995V10.5956C159.38 10.1478 159.46 9.75722 159.622 9.42395C159.786 9.09067 160.017 8.8329 160.317 8.65064C160.616 8.46578 160.968 8.37335 161.371 8.37335C161.778 8.37335 162.126 8.46318 162.418 8.64283C162.712 8.81989 162.939 9.06854 163.098 9.3888C163.256 9.70905 163.336 10.084 163.336 10.5136V10.8339H159.868V10.1816H162.859L162.399 10.7909V10.4042C162.399 10.1204 162.356 9.8848 162.27 9.69734C162.184 9.50987 162.064 9.36927 161.91 9.27554C161.759 9.1818 161.584 9.13494 161.383 9.13494C161.183 9.13494 161.004 9.18441 160.848 9.28335C160.694 9.37968 160.572 9.52289 160.481 9.71296C160.392 9.90043 160.348 10.1309 160.348 10.4042V10.7948C160.348 11.0578 160.392 11.283 160.481 11.4705C160.569 11.6553 160.694 11.7985 160.856 11.9001C161.02 11.999 161.214 12.0485 161.438 12.0485C161.612 12.0485 161.762 12.0238 161.887 11.9743C162.014 11.9222 162.117 11.861 162.195 11.7907C162.274 11.7178 162.328 11.6488 162.359 11.5837L162.371 11.5564H163.293L163.285 11.5915C163.251 11.7295 163.189 11.8701 163.098 12.0133C163.009 12.1539 162.888 12.2854 162.734 12.4078C162.583 12.5276 162.399 12.6252 162.18 12.7007C161.961 12.7736 161.707 12.8101 161.418 12.8101Z" fill="white"/>
<path d="M165.921 12.8101C165.559 12.8101 165.247 12.7593 164.984 12.6578C164.724 12.5536 164.518 12.4104 164.367 12.2281C164.216 12.0433 164.126 11.8298 164.097 11.5876V11.5798H165.062L165.066 11.5876C165.118 11.736 165.216 11.8571 165.359 11.9509C165.502 12.0446 165.695 12.0915 165.937 12.0915C166.098 12.0915 166.24 12.0693 166.363 12.0251C166.485 11.9782 166.581 11.9144 166.652 11.8337C166.722 11.753 166.757 11.6592 166.757 11.5525V11.5447C166.757 11.4197 166.706 11.3155 166.605 11.2322C166.503 11.1463 166.335 11.0773 166.101 11.0252L165.41 10.869C165.139 10.8091 164.915 10.7258 164.738 10.6191C164.561 10.5123 164.428 10.3808 164.34 10.2246C164.254 10.0684 164.211 9.88611 164.211 9.67781V9.6739C164.211 9.41614 164.282 9.18961 164.426 8.99433C164.571 8.79906 164.773 8.64674 165.031 8.53738C165.289 8.42803 165.585 8.37335 165.921 8.37335C166.268 8.37335 166.566 8.42542 166.816 8.52957C167.066 8.63372 167.261 8.77692 167.402 8.95918C167.542 9.14144 167.623 9.34844 167.644 9.58017V9.58798H166.73L166.726 9.57626C166.689 9.44087 166.602 9.32631 166.464 9.23257C166.329 9.13624 166.147 9.08807 165.917 9.08807C165.774 9.08807 165.645 9.1102 165.531 9.15446C165.419 9.19873 165.33 9.26122 165.265 9.34193C165.203 9.42004 165.171 9.51247 165.171 9.61923V9.62313C165.171 9.70645 165.192 9.77935 165.234 9.84184C165.278 9.90433 165.347 9.95901 165.441 10.0059C165.535 10.0527 165.658 10.0944 165.812 10.1309L166.503 10.2832C166.922 10.3769 167.232 10.5162 167.433 10.7011C167.633 10.8859 167.734 11.1346 167.734 11.447V11.4548C167.734 11.7256 167.655 11.9626 167.499 12.1657C167.343 12.3687 167.128 12.5276 166.855 12.6421C166.581 12.7541 166.27 12.8101 165.921 12.8101Z" fill="white"/>
</g>
<g filter="url(#filter4_dd_603_118)">
<path d="M178.809 12.9821V7.34639H179.816V9.68973H182.558V7.34639H183.562V12.9821H182.558V10.5372H179.816V12.9821H178.809Z" fill="white"/>
<path d="M186.682 13.068C186.258 13.068 185.893 12.9782 185.589 12.7986C185.287 12.6189 185.054 12.3637 184.89 12.0331C184.726 11.7024 184.644 11.3105 184.644 10.8575V10.8536C184.644 10.4058 184.724 10.0152 184.886 9.68192C185.05 9.34864 185.281 9.09087 185.581 8.90861C185.88 8.72375 186.232 8.63132 186.635 8.63132C187.042 8.63132 187.39 8.72115 187.682 8.9008C187.976 9.07786 188.203 9.32651 188.362 9.64677C188.52 9.96702 188.6 10.342 188.6 10.7716V11.0918H185.132V10.4396H188.123L187.663 11.0489V10.6622C187.663 10.3784 187.62 10.1428 187.534 9.95531C187.448 9.76784 187.328 9.62724 187.174 9.53351C187.023 9.43977 186.848 9.39291 186.647 9.39291C186.447 9.39291 186.268 9.44238 186.112 9.54132C185.958 9.63765 185.836 9.78086 185.745 9.97093C185.656 10.1584 185.612 10.3888 185.612 10.6622V11.0528C185.612 11.3157 185.656 11.541 185.745 11.7284C185.833 11.9133 185.958 12.0565 186.12 12.1581C186.284 12.257 186.478 12.3065 186.702 12.3065C186.876 12.3065 187.026 12.2817 187.151 12.2323C187.278 12.1802 187.381 12.119 187.459 12.0487C187.538 11.9758 187.592 11.9068 187.623 11.8417L187.635 11.8144H188.557L188.549 11.8495C188.515 11.9875 188.453 12.1281 188.362 12.2713C188.273 12.4119 188.152 12.5434 187.998 12.6658C187.847 12.7855 187.663 12.8832 187.444 12.9587C187.225 13.0316 186.971 13.068 186.682 13.068Z" fill="white"/>
<path d="M189.611 12.9821V7.06128H190.584V12.9821H189.611Z" fill="white"/>
<path d="M191.806 14.3998V8.71334H192.779V9.38119H192.845C192.923 9.22757 193.025 9.09608 193.15 8.98673C193.277 8.87737 193.425 8.79275 193.591 8.73286C193.758 8.67298 193.941 8.64304 194.142 8.64304C194.499 8.64304 194.807 8.73286 195.067 8.91252C195.33 9.09218 195.534 9.34734 195.677 9.67801C195.823 10.0061 195.895 10.3953 195.895 10.8458V10.8536C195.895 11.3066 195.824 11.6972 195.681 12.0253C195.537 12.3533 195.334 12.6072 195.071 12.7868C194.811 12.9639 194.501 13.0524 194.142 13.0524C193.947 13.0524 193.764 13.0225 193.595 12.9626C193.426 12.9001 193.277 12.8129 193.15 12.7009C193.022 12.589 192.921 12.4562 192.845 12.3026H192.779V14.3998H191.806ZM193.837 12.2323C194.059 12.2323 194.249 12.1776 194.407 12.0682C194.566 11.9563 194.689 11.7974 194.775 11.5917C194.86 11.3834 194.903 11.1374 194.903 10.8536V10.8458C194.903 10.5568 194.86 10.3094 194.775 10.1037C194.689 9.89803 194.566 9.7405 194.407 9.63115C194.249 9.51919 194.059 9.46321 193.837 9.46321C193.616 9.46321 193.425 9.51919 193.263 9.63115C193.104 9.7405 192.981 9.89803 192.892 10.1037C192.806 10.3094 192.763 10.5555 192.763 10.8419V10.8497C192.763 11.1361 192.806 11.3834 192.892 11.5917C192.981 11.7974 193.106 11.9563 193.267 12.0682C193.428 12.1776 193.619 12.2323 193.837 12.2323Z" fill="white"/>
</g>
<path d="M731.968 12.8621C731.916 12.8621 731.864 12.8478 731.812 12.8192C731.763 12.7905 731.699 12.7371 731.621 12.659L730.656 11.7334C730.62 11.697 730.596 11.6579 730.586 11.6162C730.578 11.572 730.586 11.5303 730.609 11.4913C730.752 11.3012 730.944 11.1424 731.183 11.0148C731.425 10.8846 731.687 10.8195 731.968 10.8195C732.242 10.8195 732.497 10.8807 732.734 11.0031C732.971 11.1254 733.161 11.2765 733.304 11.4561C733.34 11.5004 733.355 11.5486 733.347 11.6006C733.342 11.6527 733.32 11.697 733.281 11.7334L732.316 12.659C732.238 12.7371 732.173 12.7905 732.121 12.8192C732.071 12.8478 732.02 12.8621 731.968 12.8621ZM729.629 10.675L729.008 10.0696C728.969 10.0306 728.948 9.98762 728.945 9.94076C728.943 9.89129 728.958 9.84572 728.992 9.80406C729.2 9.55671 729.458 9.338 729.765 9.14793C730.073 8.95525 730.414 8.80424 730.789 8.69488C731.166 8.58552 731.559 8.53085 731.968 8.53085C732.377 8.53085 732.769 8.58552 733.144 8.69488C733.519 8.80424 733.86 8.95525 734.167 9.14793C734.477 9.338 734.735 9.55671 734.94 9.80406C734.977 9.84572 734.992 9.89129 734.987 9.94076C734.985 9.99023 734.964 10.0332 734.925 10.0696L734.304 10.675C734.254 10.7219 734.201 10.7453 734.144 10.7453C734.089 10.7453 734.039 10.7219 733.995 10.675C733.748 10.412 733.445 10.1972 733.085 10.0306C732.729 9.86395 732.356 9.78193 731.968 9.78453C731.585 9.78193 731.214 9.86265 730.855 10.0267C730.498 10.1881 730.199 10.399 729.957 10.6594C729.91 10.7115 729.855 10.7401 729.793 10.7453C729.733 10.7479 729.678 10.7245 729.629 10.675ZM727.988 9.05419L727.438 8.49179C727.399 8.45013 727.378 8.40457 727.375 8.3551C727.373 8.30302 727.388 8.25746 727.422 8.2184C727.737 7.82524 728.134 7.47764 728.613 7.17561C729.092 6.87098 729.618 6.63404 730.191 6.4648C730.767 6.29295 731.359 6.20703 731.968 6.20703C732.575 6.20703 733.166 6.29295 733.741 6.4648C734.317 6.63664 734.843 6.87358 735.319 7.17561C735.798 7.47764 736.195 7.82524 736.51 8.2184C736.547 8.25746 736.564 8.30302 736.561 8.3551C736.561 8.40457 736.54 8.45013 736.499 8.49179L735.944 9.04638C735.9 9.09065 735.848 9.11408 735.788 9.11668C735.728 9.11929 735.676 9.09846 735.632 9.05419C735.153 8.53866 734.601 8.1481 733.976 7.88252C733.353 7.61434 732.684 7.48025 731.968 7.48025C731.257 7.48025 730.591 7.61434 729.969 7.88252C729.346 8.1481 728.793 8.53736 728.309 9.05029C728.264 9.09715 728.211 9.12189 728.149 9.12449C728.089 9.12449 728.035 9.10106 727.988 9.05419Z" fill="white" fill-opacity="0.85"/>
<path d="M747.637 8.83745C747.637 8.39482 747.72 7.97823 747.887 7.58767C748.053 7.19711 748.285 6.85472 748.582 6.5605C748.879 6.26368 749.221 6.03195 749.609 5.86531C750 5.69868 750.417 5.61536 750.863 5.61536C751.308 5.61536 751.725 5.69868 752.113 5.86531C752.503 6.03195 752.847 6.26368 753.144 6.5605C753.44 6.85472 753.672 7.19711 753.839 7.58767C754.005 7.97823 754.089 8.39482 754.089 8.83745C754.089 9.17073 754.039 9.48838 753.94 9.79041C753.844 10.0924 753.709 10.3697 753.534 10.6223L755.217 12.3134C755.28 12.3785 755.327 12.4501 755.358 12.5282C755.392 12.6089 755.409 12.6949 755.409 12.786C755.409 12.911 755.38 13.0242 755.323 13.1258C755.266 13.2273 755.187 13.3067 755.089 13.364C754.99 13.4239 754.875 13.4538 754.745 13.4538C754.656 13.4538 754.57 13.4382 754.487 13.407C754.404 13.3757 754.33 13.3276 754.264 13.2625L752.566 11.5635C752.321 11.7198 752.054 11.8434 751.765 11.9346C751.478 12.0231 751.178 12.0674 750.863 12.0674C750.417 12.0674 750 11.984 749.609 11.8174C749.221 11.6508 748.879 11.419 748.582 11.1222C748.285 10.8254 748.053 10.4817 747.887 10.0911C747.72 9.70058 747.637 9.28269 747.637 8.83745ZM748.558 8.83745C748.558 9.15771 748.617 9.45714 748.734 9.73573C748.854 10.0143 749.019 10.2591 749.23 10.47C749.444 10.6809 749.69 10.8462 749.968 10.966C750.247 11.0858 750.545 11.1456 750.863 11.1456C751.18 11.1456 751.478 11.0858 751.757 10.966C752.036 10.8462 752.28 10.6809 752.491 10.47C752.702 10.2591 752.868 10.0143 752.987 9.73573C753.107 9.45714 753.167 9.15771 753.167 8.83745C753.167 8.5198 753.107 8.22298 752.987 7.94698C752.868 7.66839 752.702 7.42364 752.491 7.21274C752.28 6.99923 752.036 6.83259 751.757 6.71282C751.478 6.59305 751.18 6.53317 750.863 6.53317C750.545 6.53317 750.247 6.59305 749.968 6.71282C749.69 6.83259 749.444 6.99923 749.23 7.21274C749.019 7.42364 748.854 7.66839 748.734 7.94698C748.617 8.22298 748.558 8.5198 748.558 8.83745Z" fill="white" fill-opacity="0.85"/>
<path d="M770.557 13.6081C769.995 13.6081 769.467 13.5013 768.975 13.2878C768.483 13.0769 768.05 12.7853 767.675 12.413C767.302 12.0406 767.011 11.6084 766.8 11.1163C766.589 10.6242 766.483 10.097 766.483 9.53457C766.483 8.97217 766.589 8.44492 766.8 7.95281C767.011 7.46071 767.302 7.0285 767.675 6.65616C768.05 6.28123 768.483 5.98831 768.975 5.77741C769.467 5.56651 769.995 5.46106 770.557 5.46106C771.119 5.46106 771.647 5.56651 772.139 5.77741C772.631 5.98831 773.063 6.28123 773.435 6.65616C773.808 7.0285 774.099 7.46071 774.31 7.95281C774.524 8.44492 774.63 8.97217 774.63 9.53457C774.63 10.097 774.524 10.6242 774.31 11.1163C774.099 11.6084 773.808 12.0406 773.435 12.413C773.063 12.7853 772.631 13.0769 772.139 13.2878C771.647 13.5013 771.119 13.6081 770.557 13.6081ZM770.557 12.7137C770.997 12.7137 771.408 12.6317 771.791 12.4677C772.176 12.3036 772.514 12.0758 772.803 11.7842C773.094 11.49 773.322 11.1515 773.486 10.7687C773.653 10.3834 773.736 9.97199 773.736 9.53457C773.736 9.09454 773.653 8.68316 773.486 8.30041C773.322 7.91506 773.094 7.57658 772.803 7.28496C772.514 6.99335 772.176 6.76552 771.791 6.60149C771.408 6.43745 770.997 6.35544 770.557 6.35544C770.117 6.35544 769.704 6.43745 769.319 6.60149C768.936 6.76552 768.599 6.99335 768.307 7.28496C768.016 7.57658 767.788 7.91506 767.624 8.30041C767.46 8.68316 767.378 9.09454 767.378 9.53457C767.378 9.97199 767.46 10.3834 767.624 10.7687C767.788 11.1515 768.016 11.49 768.307 11.7842C768.599 12.0758 768.936 12.3036 769.319 12.4677C769.704 12.6317 770.117 12.7137 770.557 12.7137ZM773.111 12.1162C772.856 12.3349 772.577 12.5184 772.275 12.6668C771.976 12.8179 771.677 12.9311 771.377 13.0066C771.078 13.0847 770.804 13.1238 770.557 13.1238C770.315 13.1238 770.043 13.0847 769.741 13.0066C769.441 12.9311 769.14 12.8179 768.838 12.6668C768.536 12.5184 768.259 12.3349 768.007 12.1162L768.022 12.0302C768.119 11.8402 768.284 11.6592 768.518 11.4874C768.753 11.3129 769.043 11.171 769.389 11.0616C769.735 10.9523 770.125 10.8976 770.557 10.8976C770.994 10.8976 771.386 10.9523 771.732 11.0616C772.079 11.171 772.368 11.3129 772.6 11.4874C772.834 11.6592 772.999 11.8415 773.096 12.0341L773.111 12.1162ZM770.557 10.2688C770.304 10.2662 770.077 10.1998 769.873 10.0696C769.67 9.93945 769.509 9.7637 769.389 9.54238C769.272 9.31846 769.212 9.0672 769.209 8.78861C769.207 8.52563 769.265 8.28479 769.385 8.06608C769.508 7.84736 769.67 7.67161 769.873 7.53882C770.079 7.40603 770.307 7.33964 770.557 7.33964C770.809 7.33964 771.037 7.40603 771.24 7.53882C771.443 7.67161 771.605 7.84736 771.725 8.06608C771.847 8.28479 771.908 8.52563 771.908 8.78861C771.908 9.0672 771.848 9.31846 771.729 9.54238C771.609 9.7663 771.447 9.94466 771.244 10.0774C771.041 10.2076 770.812 10.2714 770.557 10.2688Z" fill="white" fill-opacity="0.85"/>
<path d="M787.474 13.4128C787.144 13.4128 786.844 13.3399 786.576 13.1941C786.31 13.0509 786.098 12.8517 785.939 12.5966C785.783 12.3414 785.705 12.0459 785.705 11.71C785.705 11.3741 785.783 11.0786 785.939 10.8234C786.098 10.5683 786.31 10.3691 786.576 10.2259C786.844 10.0801 787.144 10.0072 787.474 10.0072H791.54C791.871 10.0072 792.169 10.0801 792.434 10.2259C792.703 10.3691 792.915 10.5683 793.071 10.8234C793.23 11.0786 793.309 11.3741 793.309 11.71C793.309 12.0459 793.23 12.3414 793.071 12.5966C792.915 12.8517 792.703 13.0509 792.434 13.1941C792.169 13.3399 791.871 13.4128 791.54 13.4128H787.474ZM791.642 12.6434C791.811 12.6434 791.966 12.6005 792.106 12.5146C792.247 12.4312 792.359 12.318 792.442 12.1748C792.528 12.0316 792.572 11.8727 792.575 11.6983C792.575 11.5291 792.533 11.3754 792.45 11.2374C792.367 11.0968 792.253 10.9849 792.11 10.9016C791.97 10.8182 791.813 10.7766 791.642 10.7766C791.47 10.7766 791.313 10.8182 791.173 10.9016C791.032 10.9849 790.92 11.0968 790.837 11.2374C790.754 11.378 790.712 11.5343 790.712 11.7061C790.712 11.8779 790.754 12.0342 790.837 12.1748C790.92 12.3154 791.032 12.4273 791.173 12.5107C791.313 12.5966 791.47 12.6408 791.642 12.6434ZM787.634 9.40963C787.27 9.40963 786.942 9.33152 786.65 9.17529C786.359 9.01907 786.128 8.80036 785.959 8.51916C785.79 8.23535 785.705 7.90728 785.705 7.53495C785.705 7.16002 785.79 6.83195 785.959 6.55075C786.128 6.26694 786.359 6.04693 786.65 5.89071C786.942 5.73448 787.27 5.65637 787.634 5.65637H791.38C791.744 5.65637 792.072 5.73448 792.364 5.89071C792.656 6.04693 792.886 6.26694 793.055 6.55075C793.225 6.83195 793.309 7.16002 793.309 7.53495C793.309 7.90728 793.225 8.23535 793.055 8.51916C792.886 8.80036 792.656 9.01907 792.364 9.17529C792.072 9.33152 791.744 9.40963 791.38 9.40963H787.634ZM787.634 8.62461H791.38C791.588 8.62461 791.778 8.57904 791.95 8.48791C792.125 8.39418 792.264 8.26529 792.368 8.10126C792.472 7.93723 792.524 7.74846 792.524 7.53495C792.524 7.31884 792.472 7.13007 792.368 6.96864C792.264 6.80461 792.125 6.67703 791.95 6.5859C791.778 6.49216 791.588 6.4453 791.38 6.4453H787.634C787.426 6.4453 787.235 6.49216 787.06 6.5859C786.888 6.67703 786.75 6.80461 786.646 6.96864C786.542 7.13007 786.49 7.31884 786.49 7.53495C786.49 7.74846 786.542 7.93723 786.646 8.10126C786.75 8.26529 786.888 8.39418 787.06 8.48791C787.235 8.57904 787.426 8.62461 787.634 8.62461ZM787.634 8.37074C787.478 8.37074 787.336 8.33299 787.209 8.25748C787.084 8.18198 786.984 8.08043 786.908 7.95285C786.835 7.82527 786.799 7.68467 786.799 7.53105C786.799 7.37743 786.835 7.23683 786.908 7.10924C786.984 6.98166 787.084 6.88012 787.209 6.80461C787.336 6.7291 787.478 6.69135 787.634 6.69135C787.791 6.69135 787.933 6.7291 788.06 6.80461C788.188 6.87751 788.289 6.97776 788.365 7.10534C788.44 7.23032 788.477 7.37092 788.474 7.52714C788.474 7.68336 788.436 7.82527 788.361 7.95285C788.285 8.08043 788.184 8.18328 788.056 8.26139C787.931 8.3369 787.791 8.37335 787.634 8.37074Z" fill="white" fill-opacity="0.85"/>
<g filter="url(#filter5_dd_603_118)">
<path d="M804.385 12.3524V6.71665H805.541L807.236 11.0557H807.302L808.993 6.71665H810.149V12.3524H809.243V8.34527H808.751L809.751 6.87287L807.611 12.3524H806.923L804.787 6.87287L805.787 8.34527H805.291V12.3524H804.385Z" fill="white"/>
<path d="M813.282 12.4383C812.857 12.4383 812.491 12.3498 812.184 12.1727C811.877 11.9931 811.64 11.7379 811.473 11.4072C811.309 11.0766 811.227 10.6808 811.227 10.2199V10.2121C811.227 9.75649 811.311 9.36333 811.477 9.03265C811.644 8.69938 811.88 8.44421 812.184 8.26716C812.491 8.09011 812.857 8.00158 813.282 8.00158C813.706 8.00158 814.071 8.09011 814.375 8.26716C814.682 8.44421 814.919 8.69808 815.086 9.02875C815.253 9.35942 815.336 9.75388 815.336 10.2121V10.2199C815.336 10.6808 815.253 11.0766 815.086 11.4072C814.922 11.7379 814.686 11.9931 814.379 12.1727C814.074 12.3498 813.709 12.4383 813.282 12.4383ZM813.282 11.6494C813.506 11.6494 813.696 11.5934 813.852 11.4814C814.011 11.3669 814.132 11.2042 814.215 10.9933C814.298 10.7797 814.34 10.5233 814.34 10.2239V10.216C814.34 9.91401 814.298 9.65755 814.215 9.44665C814.132 9.23314 814.011 9.07041 813.852 8.95845C813.696 8.84389 813.506 8.7866 813.282 8.7866C813.058 8.7866 812.866 8.84389 812.708 8.95845C812.549 9.07041 812.428 9.23314 812.344 9.44665C812.261 9.65755 812.219 9.91401 812.219 10.216V10.2239C812.219 10.5233 812.261 10.7797 812.344 10.9933C812.428 11.2068 812.547 11.3695 812.704 11.4814C812.862 11.5934 813.055 11.6494 813.282 11.6494Z" fill="white"/>
<path d="M816.312 12.3524V8.0836H817.285V8.73974H817.351C817.453 8.50801 817.606 8.32705 817.812 8.19686C818.018 8.06668 818.274 8.00158 818.582 8.00158C819.058 8.00158 819.423 8.13958 819.675 8.41557C819.928 8.69157 820.054 9.08343 820.054 9.59115V12.3524H819.081V9.81767C819.081 9.4844 819.011 9.23444 818.871 9.0678C818.733 8.90117 818.516 8.81785 818.222 8.81785C818.03 8.81785 817.863 8.86081 817.722 8.94673C817.582 9.03265 817.474 9.15373 817.398 9.30995C817.323 9.46617 817.285 9.65104 817.285 9.86454V12.3524H816.312Z" fill="white"/>
<path d="M824.838 12.493C824.565 12.493 824.32 12.4539 824.104 12.3758C823.888 12.2977 823.703 12.1871 823.549 12.0439C823.398 11.9006 823.28 11.7301 823.194 11.5322C823.111 11.3317 823.064 11.1104 823.053 10.8683L823.049 10.8253H824.034L824.038 10.8566C824.048 10.9998 824.083 11.1286 824.143 11.2432C824.206 11.3552 824.294 11.445 824.409 11.5127C824.523 11.5778 824.662 11.6103 824.827 11.6103C825.1 11.6103 825.307 11.5309 825.448 11.3721C825.591 11.2107 825.662 10.9776 825.662 10.673V6.71665H826.666V10.6808C826.666 11.0609 826.594 11.3864 826.451 11.6572C826.308 11.928 826.1 12.135 825.826 12.2782C825.553 12.4214 825.224 12.493 824.838 12.493Z" fill="white"/>
<path d="M829.373 12.4383C829.055 12.4383 828.788 12.3771 828.572 12.2548C828.356 12.1298 828.193 11.9488 828.084 11.7119C827.974 11.4723 827.92 11.1833 827.92 10.8448V8.0836H828.892V10.6222C828.892 10.9529 828.957 11.2015 829.088 11.3682C829.218 11.5348 829.43 11.6181 829.724 11.6181C829.88 11.6181 830.018 11.5947 830.138 11.5478C830.26 11.4984 830.362 11.4281 830.443 11.3369C830.523 11.2458 830.585 11.1365 830.626 11.0089C830.668 10.8787 830.689 10.7329 830.689 10.5714V8.0836H831.661V12.3524H830.689V11.7041H830.622C830.557 11.8551 830.466 11.9866 830.349 12.0985C830.232 12.2079 830.091 12.2925 829.927 12.3524C829.763 12.4097 829.578 12.4383 829.373 12.4383Z" fill="white"/>
<path d="M832.849 12.3524V8.0836H833.821V8.73974H833.887C833.989 8.50801 834.143 8.32705 834.348 8.19686C834.554 8.06668 834.81 8.00158 835.118 8.00158C835.594 8.00158 835.959 8.13958 836.211 8.41557C836.464 8.69157 836.59 9.08343 836.59 9.59115V12.3524H835.618V9.81767C835.618 9.4844 835.547 9.23444 835.407 9.0678C835.269 8.90117 835.053 8.81785 834.758 8.81785C834.566 8.81785 834.399 8.86081 834.258 8.94673C834.118 9.03265 834.01 9.15373 833.934 9.30995C833.859 9.46617 833.821 9.65104 833.821 9.86454V12.3524H832.849Z" fill="white"/>
<path d="M841.249 12.3524V7.70867H841.179L839.777 8.69678V7.75163L841.249 6.71665H842.253V12.3524H841.249Z" fill="white"/>
<path d="M845.885 12.493C845.438 12.493 845.053 12.3732 844.733 12.1337C844.416 11.8941 844.171 11.5531 843.999 11.1104C843.827 10.6678 843.741 10.1431 843.741 9.53647V9.52866C843.741 8.922 843.827 8.39865 843.999 7.95862C844.171 7.51599 844.416 7.1749 844.733 6.93536C845.053 6.69582 845.438 6.57605 845.885 6.57605C846.333 6.57605 846.717 6.69582 847.038 6.93536C847.358 7.1749 847.604 7.51599 847.776 7.95862C847.948 8.39865 848.033 8.922 848.033 9.52866V9.53647C848.033 10.1431 847.948 10.6678 847.776 11.1104C847.604 11.5531 847.358 11.8941 847.038 12.1337C846.717 12.3732 846.333 12.493 845.885 12.493ZM845.885 11.6767C846.125 11.6767 846.329 11.5908 846.499 11.419C846.668 11.2471 846.797 11.0024 846.885 10.6847C846.976 10.3645 847.022 9.98171 847.022 9.53647V9.52866C847.022 9.08343 846.976 8.70198 846.885 8.38433C846.797 8.06407 846.668 7.81932 846.499 7.65008C846.329 7.47824 846.125 7.39231 845.885 7.39231C845.646 7.39231 845.441 7.47824 845.272 7.65008C845.106 7.81932 844.977 8.06407 844.886 8.38433C844.797 8.70198 844.753 9.08343 844.753 9.52866V9.53647C844.753 9.98171 844.797 10.3645 844.886 10.6847C844.977 11.0024 845.106 11.2471 845.272 11.419C845.441 11.5908 845.646 11.6767 845.885 11.6767Z" fill="white"/>
<path d="M855.47 12.493C855.022 12.493 854.638 12.3732 854.318 12.1337C854 11.8941 853.755 11.5531 853.583 11.1104C853.411 10.6678 853.325 10.1431 853.325 9.53647V9.52866C853.325 8.922 853.411 8.39865 853.583 7.95862C853.755 7.51599 854 7.1749 854.318 6.93536C854.638 6.69582 855.022 6.57605 855.47 6.57605C855.917 6.57605 856.302 6.69582 856.622 6.93536C856.942 7.1749 857.188 7.51599 857.36 7.95862C857.532 8.39865 857.618 8.922 857.618 9.52866V9.53647C857.618 10.1431 857.532 10.6678 857.36 11.1104C857.188 11.5531 856.942 11.8941 856.622 12.1337C856.302 12.3732 855.917 12.493 855.47 12.493ZM855.47 11.6767C855.709 11.6767 855.914 11.5908 856.083 11.419C856.252 11.2471 856.381 11.0024 856.469 10.6847C856.561 10.3645 856.606 9.98171 856.606 9.53647V9.52866C856.606 9.08343 856.561 8.70198 856.469 8.38433C856.381 8.06407 856.252 7.81932 856.083 7.65008C855.914 7.47824 855.709 7.39231 855.47 7.39231C855.23 7.39231 855.026 7.47824 854.856 7.65008C854.69 7.81932 854.561 8.06407 854.47 8.38433C854.381 8.70198 854.337 9.08343 854.337 9.52866V9.53647C854.337 9.98171 854.381 10.3645 854.47 10.6847C854.561 11.0024 854.69 11.2471 854.856 11.419C855.026 11.5908 855.23 11.6767 855.47 11.6767Z" fill="white"/>
<path d="M860.719 6.57605C861.021 6.57605 861.307 6.63203 861.578 6.74399C861.849 6.85335 862.088 7.02519 862.297 7.25952C862.507 7.49126 862.673 7.78938 862.793 8.1539C862.912 8.51582 862.972 8.95194 862.972 9.46227V9.47008C862.972 10.1028 862.881 10.6444 862.699 11.0948C862.517 11.5452 862.255 11.8915 861.914 12.1337C861.575 12.3732 861.17 12.493 860.699 12.493C860.353 12.493 860.04 12.4305 859.762 12.3055C859.486 12.1779 859.257 12.0035 859.074 11.7822C858.895 11.5583 858.774 11.3031 858.711 11.0167L858.703 10.9737H859.692L859.707 11.0128C859.757 11.143 859.827 11.2575 859.918 11.3565C860.012 11.4554 860.124 11.5322 860.254 11.5869C860.387 11.639 860.535 11.665 860.699 11.665C860.996 11.665 861.238 11.5778 861.426 11.4033C861.616 11.2263 861.758 10.9906 861.851 10.6964C861.948 10.3996 862.002 10.0715 862.015 9.71222C862.018 9.67317 862.019 9.63541 862.019 9.59896C862.019 9.55991 862.019 9.52215 862.019 9.4857L861.844 8.54446C861.844 8.33095 861.794 8.13698 861.695 7.96253C861.596 7.78808 861.462 7.65008 861.293 7.54854C861.126 7.44699 860.937 7.39622 860.727 7.39622C860.523 7.39622 860.337 7.44569 860.168 7.54463C859.999 7.64357 859.863 7.77897 859.762 7.95081C859.66 8.12005 859.61 8.31012 859.61 8.52102V8.52884C859.61 8.74755 859.658 8.94152 859.754 9.11077C859.85 9.2774 859.982 9.40889 860.149 9.50523C860.315 9.60157 860.505 9.64973 860.719 9.64973C860.932 9.64973 861.124 9.60287 861.293 9.50913C861.462 9.4154 861.596 9.28521 861.695 9.11858C861.794 8.95194 861.844 8.76317 861.844 8.55227V8.54446H862.078V9.58334H861.941C861.873 9.73175 861.773 9.86975 861.64 9.99733C861.508 10.1249 861.344 10.2278 861.148 10.3059C860.956 10.384 860.729 10.423 860.469 10.423C860.109 10.423 859.792 10.3423 859.516 10.1809C859.24 10.0195 859.022 9.79815 858.864 9.51695C858.707 9.23574 858.629 8.91809 858.629 8.56399V8.55617C858.629 8.17343 858.718 7.83364 858.895 7.53682C859.074 7.23739 859.322 7.00306 859.637 6.83382C859.955 6.66197 860.315 6.57605 860.719 6.57605Z" fill="white"/>
<path d="M864.745 11.5947C864.568 11.5947 864.42 11.5361 864.3 11.419C864.183 11.2992 864.124 11.1534 864.124 10.9815C864.124 10.8071 864.183 10.6613 864.3 10.5441C864.42 10.4243 864.568 10.3645 864.745 10.3645C864.925 10.3645 865.073 10.4243 865.191 10.5441C865.308 10.6613 865.366 10.8071 865.366 10.9815C865.366 11.1534 865.308 11.2992 865.191 11.419C865.073 11.5361 864.925 11.5947 864.745 11.5947ZM864.745 8.69678C864.568 8.69678 864.42 8.63819 864.3 8.52102C864.183 8.40125 864.124 8.25545 864.124 8.0836C864.124 7.90915 864.183 7.76334 864.3 7.64618C864.42 7.52641 864.568 7.46652 864.745 7.46652C864.925 7.46652 865.073 7.52641 865.191 7.64618C865.308 7.76334 865.366 7.90915 865.366 8.0836C865.366 8.25545 865.308 8.40125 865.191 8.52102C865.073 8.63819 864.925 8.69678 864.745 8.69678Z" fill="white"/>
<path d="M869.252 12.3524V11.2705H866.495V10.4465C866.643 10.1939 866.792 9.94005 866.94 9.68489C867.091 9.42972 867.244 9.17586 867.397 8.9233C867.553 8.66813 867.708 8.41688 867.862 8.16952C868.018 7.91957 868.173 7.67352 868.327 7.43137C868.483 7.18662 868.639 6.94838 868.795 6.71665H870.213V10.4387H870.975V11.2705H870.213V12.3524H869.252ZM867.432 10.4621H869.268V7.5212H869.209C869.095 7.69825 868.976 7.88051 868.854 8.06798C868.734 8.25545 868.613 8.44682 868.491 8.6421C868.368 8.83738 868.247 9.03396 868.128 9.23184C868.008 9.42712 867.889 9.6237 867.772 9.82158C867.655 10.0169 867.542 10.2108 867.432 10.4035V10.4621Z" fill="white"/>
<path d="M873.306 12.3524V7.70867H873.236L871.834 8.69678V7.75163L873.306 6.71665H874.31V12.3524H873.306Z" fill="white"/>
</g>
<path d="M13.792 7.6449C13.9072 7.7278 14.3569 7.99612 14.8154 8.26013C14.7287 8.36355 14.6477 8.47232 14.5752 8.58728C14.2748 9.06326 14.1146 9.61431 14.1113 10.1771C14.1081 10.7399 14.2619 11.2925 14.5566 11.7719C14.8515 12.2513 15.2755 12.638 15.7793 12.889C16.283 13.14 16.847 13.2451 17.4072 13.1918C17.9675 13.1384 18.5019 12.9288 18.9492 12.5873L19.667 13.5287C19.0438 14.0044 18.3 14.2962 17.5195 14.3705C16.7389 14.4448 15.9528 14.2983 15.251 13.9486C14.5493 13.5989 13.9596 13.0598 13.5488 12.392C13.1381 11.7241 12.9222 10.9544 12.9268 10.1703C12.9313 9.38619 13.1558 8.61857 13.5742 7.95544C13.6419 7.84818 13.7153 7.74507 13.792 7.6449ZM15.2949 6.41833C16.0006 6.07693 16.7879 5.94054 17.5674 6.0238C18.347 6.10709 19.0874 6.40715 19.7051 6.89001L18.9766 7.82263C18.5332 7.47597 18.001 7.26034 17.4414 7.20056C16.882 7.14085 16.317 7.23879 15.8105 7.48376C15.6625 7.55543 15.5211 7.63976 15.3877 7.73376C15.0774 7.52862 14.738 7.32297 14.4463 7.17712C14.3864 7.14717 14.3313 7.12531 14.2812 7.10876C14.5821 6.83182 14.9233 6.5982 15.2949 6.41833Z" fill="white"/>
<path d="M17.5269 11.2369L17.7352 11.4492L18.1599 11.0324L17.9515 10.8201L17.7392 11.0285L17.5269 11.2369ZM13.3248 10.849L13.547 10.6512C12.9667 9.99926 12.5737 9.30857 12.3993 8.74719C12.3117 8.46542 12.2844 8.23302 12.3031 8.06204C12.3216 7.89398 12.3796 7.81259 12.4401 7.77197C12.5054 7.72818 12.6377 7.6884 12.8903 7.73878C13.1416 7.78892 13.4788 7.92277 13.9113 8.17764C14.7753 8.68674 15.9655 9.64588 17.5269 11.2369L17.7392 11.0285L17.9515 10.8201C16.3743 9.21298 15.1421 8.21222 14.2134 7.66501C13.7496 7.39172 13.3478 7.22333 13.0067 7.15528C12.6668 7.08748 12.3534 7.11359 12.1085 7.27794C11.859 7.44545 11.7427 7.71443 11.7117 7.99717C11.681 8.27698 11.7291 8.59577 11.8311 8.92379C12.0356 9.58199 12.478 10.3452 13.1026 11.0468L13.3248 10.849Z" fill="white"/>
<path d="M13.0451 9.35962H13.6967V11.0352L13.045 11.1283C13.0245 11.1589 12.9619 10.8535 12.952 10.5698C12.9467 10.4178 12.9519 10.3676 12.9519 10.1974C12.9519 9.73198 12.8589 9.82507 13.0451 9.35962Z" fill="white"/>
<path d="M20.4282 12.9262L20.6007 13.1685L21.0854 12.8234L20.9128 12.581L20.6705 12.7536L20.4282 12.9262ZM12.4893 7.51759L12.7866 7.52809C12.7963 7.25352 12.865 7.09702 12.9426 7.01007C13.0156 6.9283 13.1293 6.87124 13.3161 6.86465C13.7152 6.85056 14.3369 7.07333 15.1226 7.56817C16.6715 8.54371 18.6678 10.4541 20.4282 12.9262L20.6705 12.7536L20.9128 12.581C19.1205 10.0641 17.0709 8.09208 15.4396 7.0647C14.6353 6.55808 13.8833 6.24925 13.2951 6.27002C12.9883 6.28085 12.705 6.38284 12.4988 6.6138C12.2972 6.83957 12.2046 7.14949 12.1919 7.5071L12.4893 7.51759Z" fill="white"/>
</g>
<defs>
<filter id="filter0_dd_603_118" x="-29.7631" y="-32.6916" width="165.743" height="129.144" filterUnits="userSpaceOnUse" color-interpolation-filters="sRGB">
<feFlood flood-opacity="0" result="BackgroundImageFix"/>
<feColorMatrix in="SourceAlpha" type="matrix" values="0 0 0 0 0 0 0 0 0 0 0 0 0 0 0 0 0 0 127 0" result="hardAlpha"/>
<feOffset dy="0.615278"/>
<feGaussianBlur stdDeviation="1.23056"/>
<feComposite in2="hardAlpha" operator="out"/>
<feColorMatrix type="matrix" values="0 0 0 0 0 0 0 0 0 0 0 0 0 0 0 0 0 0 0.2 0"/>
<feBlend mode="normal" in2="BackgroundImageFix" result="effect1_dropShadow_603_118"/>
<feColorMatrix in="SourceAlpha" type="matrix" values="0 0 0 0 0 0 0 0 0 0 0 0 0 0 0 0 0 0 127 0" result="hardAlpha"/>
<feOffset dy="22.15"/>
<feGaussianBlur stdDeviation="30.7639"/>
<feComposite in2="hardAlpha" operator="out"/>
<feColorMatrix type="matrix" values="0 0 0 0 0 0 0 0 0 0 0 0 0 0 0 0 0 0 0.7 0"/>
<feBlend mode="normal" in2="effect1_dropShadow_603_118" result="effect2_dropShadow_603_118"/>
<feBlend mode="normal" in="SourceGraphic" in2="effect2_dropShadow_603_118" result="shape"/>
</filter>
<filter id="filter1_dd_603_118" x="23.9996" y="-32.7541" width="135.823" height="129.269" filterUnits="userSpaceOnUse" color-interpolation-filters="sRGB">
<feFlood flood-opacity="0" result="BackgroundImageFix"/>
<feColorMatrix in="SourceAlpha" type="matrix" values="0 0 0 0 0 0 0 0 0 0 0 0 0 0 0 0 0 0 127 0" result="hardAlpha"/>
<feOffset dy="0.615278"/>
<feGaussianBlur stdDeviation="1.23056"/>
<feComposite in2="hardAlpha" operator="out"/>
<feColorMatrix type="matrix" values="0 0 0 0 0 0 0 0 0 0 0 0 0 0 0 0 0 0 0.2 0"/>
<feBlend mode="normal" in2="BackgroundImageFix" result="effect1_dropShadow_603_118"/>
<feColorMatrix in="SourceAlpha" type="matrix" values="0 0 0 0 0 0 0 0 0 0 0 0 0 0 0 0 0 0 127 0" result="hardAlpha"/>
<feOffset dy="22.15"/>
<feGaussianBlur stdDeviation="30.7639"/>
<feComposite in2="hardAlpha" operator="out"/>
<feColorMatrix type="matrix" values="0 0 0 0 0 0 0 0 0 0 0 0 0 0 0 0 0 0 0.7 0"/>
<feBlend mode="normal" in2="effect1_dropShadow_603_118" result="effect2_dropShadow_603_118"/>
<feBlend mode="normal" in="SourceGraphic" in2="effect2_dropShadow_603_118" result="shape"/>
</filter>
<filter id="filter2_dd_603_118" x="47.8423" y="-32.7463" width="137.314" height="129.254" filterUnits="userSpaceOnUse" color-interpolation-filters="sRGB">
<feFlood flood-opacity="0" result="BackgroundImageFix"/>
<feColorMatrix in="SourceAlpha" type="matrix" values="0 0 0 0 0 0 0 0 0 0 0 0 0 0 0 0 0 0 127 0" result="hardAlpha"/>
<feOffset dy="0.615278"/>
<feGaussianBlur stdDeviation="1.23056"/>
<feComposite in2="hardAlpha" operator="out"/>
<feColorMatrix type="matrix" values="0 0 0 0 0 0 0 0 0 0 0 0 0 0 0 0 0 0 0.2 0"/>
<feBlend mode="normal" in2="BackgroundImageFix" result="effect1_dropShadow_603_118"/>
<feColorMatrix in="SourceAlpha" type="matrix" values="0 0 0 0 0 0 0 0 0 0 0 0 0 0 0 0 0 0 127 0" result="hardAlpha"/>
<feOffset dy="22.15"/>
<feGaussianBlur stdDeviation="30.7639"/>
<feComposite in2="hardAlpha" operator="out"/>
<feColorMatrix type="matrix" values="0 0 0 0 0 0 0 0 0 0 0 0 0 0 0 0 0 0 0.7 0"/>
<feBlend mode="normal" in2="effect1_dropShadow_603_118" result="effect2_dropShadow_603_118"/>
<feBlend mode="normal" in="SourceGraphic" in2="effect2_dropShadow_603_118" result="shape"/>
</filter>
<filter id="filter3_dd_603_118" x="73.1763" y="-32.7815" width="156.085" height="129.324" filterUnits="userSpaceOnUse" color-interpolation-filters="sRGB">
<feFlood flood-opacity="0" result="BackgroundImageFix"/>
<feColorMatrix in="SourceAlpha" type="matrix" values="0 0 0 0 0 0 0 0 0 0 0 0 0 0 0 0 0 0 127 0" result="hardAlpha"/>
<feOffset dy="0.615278"/>
<feGaussianBlur stdDeviation="1.23056"/>
<feComposite in2="hardAlpha" operator="out"/>
<feColorMatrix type="matrix" values="0 0 0 0 0 0 0 0 0 0 0 0 0 0 0 0 0 0 0.2 0"/>
<feBlend mode="normal" in2="BackgroundImageFix" result="effect1_dropShadow_603_118"/>
<feColorMatrix in="SourceAlpha" type="matrix" values="0 0 0 0 0 0 0 0 0 0 0 0 0 0 0 0 0 0 127 0" result="hardAlpha"/>
<feOffset dy="22.15"/>
<feGaussianBlur stdDeviation="30.7639"/>
<feComposite in2="hardAlpha" operator="out"/>
<feColorMatrix type="matrix" values="0 0 0 0 0 0 0 0 0 0 0 0 0 0 0 0 0 0 0.7 0"/>
<feBlend mode="normal" in2="effect1_dropShadow_603_118" result="effect2_dropShadow_603_118"/>
<feBlend mode="normal" in="SourceGraphic" in2="effect2_dropShadow_603_118" result="shape"/>
</filter>
<filter id="filter4_dd_603_118" x="117.281" y="-32.3165" width="140.142" height="130.394" filterUnits="userSpaceOnUse" color-interpolation-filters="sRGB">
<feFlood flood-opacity="0" result="BackgroundImageFix"/>
<feColorMatrix in="SourceAlpha" type="matrix" values="0 0 0 0 0 0 0 0 0 0 0 0 0 0 0 0 0 0 127 0" result="hardAlpha"/>
<feOffset dy="0.615278"/>
<feGaussianBlur stdDeviation="1.23056"/>
<feComposite in2="hardAlpha" operator="out"/>
<feColorMatrix type="matrix" values="0 0 0 0 0 0 0 0 0 0 0 0 0 0 0 0 0 0 0.2 0"/>
<feBlend mode="normal" in2="BackgroundImageFix" result="effect1_dropShadow_603_118"/>
<feColorMatrix in="SourceAlpha" type="matrix" values="0 0 0 0 0 0 0 0 0 0 0 0 0 0 0 0 0 0 127 0" result="hardAlpha"/>
<feOffset dy="22.15"/>
<feGaussianBlur stdDeviation="30.7639"/>
<feComposite in2="hardAlpha" operator="out"/>
<feColorMatrix type="matrix" values="0 0 0 0 0 0 0 0 0 0 0 0 0 0 0 0 0 0 0.7 0"/>
<feBlend mode="normal" in2="effect1_dropShadow_603_118" result="effect2_dropShadow_603_118"/>
<feBlend mode="normal" in="SourceGraphic" in2="effect2_dropShadow_603_118" result="shape"/>
</filter>
<filter id="filter5_dd_603_118" x="742.857" y="-32.8017" width="192.981" height="128.973" filterUnits="userSpaceOnUse" color-interpolation-filters="sRGB">
<feFlood flood-opacity="0" result="BackgroundImageFix"/>
<feColorMatrix in="SourceAlpha" type="matrix" values="0 0 0 0 0 0 0 0 0 0 0 0 0 0 0 0 0 0 127 0" result="hardAlpha"/>
<feOffset dy="0.615278"/>
<feGaussianBlur stdDeviation="1.23056"/>
<feComposite in2="hardAlpha" operator="out"/>
<feColorMatrix type="matrix" values="0 0 0 0 0 0 0 0 0 0 0 0 0 0 0 0 0 0 0.2 0"/>
<feBlend mode="normal" in2="BackgroundImageFix" result="effect1_dropShadow_603_118"/>
<feColorMatrix in="SourceAlpha" type="matrix" values="0 0 0 0 0 0 0 0 0 0 0 0 0 0 0 0 0 0 127 0" result="hardAlpha"/>
<feOffset dy="22.15"/>
<feGaussianBlur stdDeviation="30.7639"/>
<feComposite in2="hardAlpha" operator="out"/>
<feColorMatrix type="matrix" values="0 0 0 0 0 0 0 0 0 0 0 0 0 0 0 0 0 0 0.7 0"/>
<feBlend mode="normal" in2="effect1_dropShadow_603_118" result="effect2_dropShadow_603_118"/>
<feBlend mode="normal" in="SourceGraphic" in2="effect2_dropShadow_603_118" result="shape"/>
</filter>
<clipPath id="clip0_603_118">
<rect width="886" height="20" fill="white"/>
</clipPath>
</defs>
</svg>
